<svg width="100%" height="100%" version="1.1" viewBox="0 0 1000 1000" xmlns="http://www.w3.org/2000/svg">
  <g>
    <path d="M 200,866 C 100,866 50,779.4 100,692.8 L 200,519.6 C 220,485 240,490 265,499.6 S 360,542.68 360,542.68 C 480.5,601 498,642.5 500,720 C 498,811 462,856 420,866" fill="#646cff" />
    <path d="M 420,866 C 455,861 478,846 500,827 C 614,696 615,597 500,517 C 394,444 333,374 380,207.82 L 260,415.67 C 240.22,450 254.37,465.1 275.28,481.79 S 360,542.68 360,542.68 C 480.5,601 498,642.5 500,720 C 498,811 462,856 420,866" fill="#5058e6" />
    <path d="M 500,517 C 394,444 333,374 380,207.82 L 400,173.2 C 367,295 421,350 603,428 C 572,440 524,474 500,517" fill="#373ebf" />
    <path d="M 500,827 L 660,660 C 738,589 710,482 603,428 C 572,440 524,474 500,517 C 615,597 614,696 500,827" fill="#91a7ff" />
    <path d="M 400,173.2 C 367,295 421,350 603,428 C 690,389, 750,445 788,500 L 600,173.2 C 550,86.6 450,86.6 400,173.2" fill="#c2d6ff" />
    <path d="M 500,827 L 660,660 C 738,589 710,482 603,428 C 690,389, 750,445 788,500 C 816,554 797,606 750,640 L 500,827" fill="#646cff" />
    <path d="M 788,500 C 816,554 797,606 750,640 L 500,827 C 497,851 513,862 540,866 L 800,866 C 900,866 950,779.4 900,692.8 L 788,500" fill="#373ebf" />
  </g>
</svg>
